<?xml version="1.0" standalone="no"?>
<!DOCTYPE svg PUBLIC "-//W3C//DTD SVG 20010904//EN"
 "http://www.w3.org/TR/2001/REC-SVG-20010904/DTD/svg10.dtd">
<svg version="1.0" xmlns="http://www.w3.org/2000/svg"
 width="184.000000pt" height="148.000000pt" viewBox="0 0 184.000000 148.000000"
 preserveAspectRatio="xMidYMid meet">

<g transform="translate(0.000000,148.000000) scale(0.100000,-0.100000)"
fill="#000000" stroke="none">
<path d="M477 1448 c-61 -81 -107 -213 -107 -308 0 -184 110 -370 268 -454 39
-20 79 -36 91 -36 19 0 21 6 21 55 l0 55 -44 0 c-62 0 -94 15 -114 52 -9 17
-34 50 -54 73 -21 23 -35 45 -31 48 17 18 50 2 98 -48 47 -48 58 -55 92 -55
45 0 54 6 71 43 16 36 17 34 -25 42 -48 9 -102 37 -130 67 -59 63 -74 197 -33
278 15 29 23 59 21 83 -1 20 0 51 4 67 8 37 34 39 96 7 40 -20 57 -22 184 -21
120 1 146 4 185 22 72 34 88 30 96 -23 3 -25 4 -54 1 -66 -3 -12 5 -40 19 -67
22 -41 25 -57 22 -122 -2 -51 -10 -88 -24 -115 -25 -48 -98 -101 -154 -110
-34 -6 -40 -10 -34 -23 5 -10 11 -66 14 -127 6 -131 9 -133 105 -86 85 42 172
129 217 216 49 96 62 158 56 274 -5 104 -25 163 -90 264 l-30 47 -384 0 -383
0 -24 -32z"/>
<path d="M163 539 c-64 -31 -93 -97 -93 -208 1 -133 39 -196 134 -222 46 -13
128 -7 169 12 l27 12 0 114 0 113 -81 0 -80 0 3 -37 c3 -35 6 -38 36 -41 31
-3 32 -5 32 -48 l0 -44 -41 0 c-22 0 -49 5 -61 11 -46 25 -64 152 -30 219 22
45 72 63 137 51 50 -9 50 -10 60 36 6 29 4 34 -20 43 -46 18 -146 12 -192 -11z"/>
<path d="M477 532 c-10 -2 -22 -15 -28 -28 -17 -47 27 -87 71 -64 17 9 20 19
18 47 -3 37 -25 53 -61 45z"/>
<path d="M820 325 l0 -215 45 0 45 0 0 95 0 95 65 0 65 0 0 -95 0 -95 45 0 45
0 0 215 0 215 -45 0 -45 0 0 -80 0 -80 -65 0 -65 0 0 80 0 80 -45 0 -45 0 0
-215z"/>
<path d="M1492 328 l3 -213 29 -3 c16 -2 32 2 37 9 6 10 11 10 21 1 23 -19 95
-26 127 -12 46 19 64 67 59 165 -3 72 -6 87 -28 110 -23 25 -29 27 -92 22
l-68 -4 0 68 0 69 -45 0 -45 0 2 -212z m176 0 c18 -18 15 -123 -4 -142 -14
-15 -50 -14 -76 1 -14 7 -9 141 5 146 23 10 63 7 75 -5z"/>
<path d="M620 446 c0 -39 -3 -45 -22 -48 -18 -2 -24 -11 -26 -35 -3 -29 0 -33
21 -33 24 0 25 -2 29 -89 2 -70 7 -93 22 -110 21 -24 74 -36 112 -27 21 6 25
12 22 38 -2 21 -9 32 -21 34 -44 6 -47 11 -47 84 l0 70 36 0 c35 0 35 1 32 38
-3 34 -6 37 -35 40 -31 3 -33 6 -33 43 l0 39 -45 0 -45 0 0 -44z"/>
<path d="M450 261 l0 -151 45 0 46 0 -3 148 -3 147 -42 3 -43 3 0 -150z"/>
<path d="M1180 291 c0 -144 7 -165 55 -181 39 -13 110 -7 131 11 8 7 14 7 19
-1 3 -5 20 -10 36 -10 l30 0 -3 148 -3 147 -42 3 -43 3 0 -111 c0 -109 0 -111
-26 -120 -17 -7 -32 -7 -44 0 -17 9 -20 24 -22 118 l-3 107 -42 3 -43 3 0
-120z"/>
</g>
</svg>
