<?xml version="1.0" standalone="no"?>
<!DOCTYPE svg PUBLIC "-//W3C//DTD SVG 20010904//EN"
 "http://www.w3.org/TR/2001/REC-SVG-20010904/DTD/svg10.dtd">
<svg version="1.0" xmlns="http://www.w3.org/2000/svg"
 width="204.000000pt" height="192.000000pt" viewBox="0 0 204.000000 192.000000"
 preserveAspectRatio="xMidYMid meet">

<g transform="translate(0.000000,192.000000) scale(0.100000,-0.100000)"
fill="#000000" stroke="none">
<path d="M402 1910 c-63 -15 -165 -74 -217 -127 -61 -61 -109 -153 -125 -238
-17 -92 -9 -1167 10 -1218 9 -25 16 -33 21 -25 4 7 11 9 15 5 4 -3 1 -13 -5
-21 -8 -9 -8 -16 -2 -20 5 -4 12 2 15 12 11 32 80 82 106 75 20 -5 21 -4 11
15 -8 14 -10 186 -8 579 l2 558 24 45 c35 68 67 106 114 138 91 62 90 62 657
62 497 0 518 -1 578 -21 75 -25 147 -90 188 -169 l29 -55 0 -555 0 -555 -24
-45 c-67 -125 -159 -186 -298 -197 -46 -3 -83 -10 -83 -14 0 -5 4 -9 10 -9 18
0 51 -34 65 -67 8 -18 19 -33 24 -33 6 0 11 -7 11 -15 0 -12 14 -15 64 -15
126 0 284 109 352 241 51 102 54 132 54 704 0 320 -4 555 -11 594 -26 164
-148 304 -314 361 -56 19 -82 20 -644 19 -322 -1 -601 -5 -619 -9z"/>
<path d="M1494 1609 c-31 -16 -54 -62 -54 -109 0 -34 6 -48 34 -76 87 -87 222
0 186 119 -19 63 -102 96 -166 66z"/>
<path d="M920 1429 c-110 -21 -244 -117 -311 -220 -119 -186 -81 -454 86 -608
46 -42 155 -101 187 -101 9 0 19 -4 22 -9 9 -14 114 -19 190 -10 97 12 185 58
267 139 96 95 139 198 139 335 0 132 -41 233 -133 331 -114 123 -280 176 -447
143z m253 -177 c132 -65 206 -216 177 -360 -22 -106 -88 -190 -188 -239 -49
-24 -69 -28 -142 -28 -71 0 -94 4 -140 26 -142 67 -217 211 -189 364 17 93 54
152 132 210 102 75 232 85 350 27z"/>
</g>
</svg>
