<?xml version="1.0" standalone="no"?>
<!DOCTYPE svg PUBLIC "-//W3C//DTD SVG 20010904//EN"
 "http://www.w3.org/TR/2001/REC-SVG-20010904/DTD/svg10.dtd">
<svg version="1.0" xmlns="http://www.w3.org/2000/svg"
 width="204.000000pt" height="192.000000pt" viewBox="0 0 204.000000 192.000000"
 preserveAspectRatio="xMidYMid meet">

<g transform="translate(0.000000,192.000000) scale(0.100000,-0.100000)"
fill="#000000" stroke="none">
<path d="M662 1449 c-187 -10 -225 -20 -273 -68 -59 -59 -74 -143 -74 -426 1
-245 15 -352 53 -405 34 -47 97 -69 227 -80 149 -12 677 -12 843 0 246 17 277
64 289 425 5 167 -6 330 -27 408 -17 57 -64 104 -123 123 -95 29 -582 41 -915
23z m302 -325 c44 -26 118 -68 162 -93 144 -81 139 -72 59 -116 -39 -21 -123
-69 -189 -107 -65 -37 -120 -68 -122 -68 -2 0 -4 97 -4 215 0 118 3 215 6 215
3 0 43 -21 88 -46z"/>
</g>
</svg>
